<svg width="24" height="24" xmlns="http://www.w3.org/2000/svg" viewBox="0 0 24 24" role="img" fill="currentColor" aria-hidden="true" aria-labelledby="cartButton" data-testid="cartIcon">
    <path d="M16.125 20.625a1.125 1.125 0 1 1 0 2.25 1.125 1.125 0 0 1 0-2.25Zm-7.5 0a1.125 1.125 0 1 1 0 2.25 1.125 1.125 0 0 1 0-2.25ZM2.484.378A2.25 2.25 0 0 1 4.702 2.25l.446 2.62 16.602.001c.41 0 .8.168 1.082.46l.1.117a1.5 1.5 0 0 1 .274 1.287l-1.45 5.8a3.75 3.75 0 0 1-3.638 2.84H6.935l.404 2.375a.75.75 0 0 0 .632.617l.108.008H18a.75.75 0 1 1 0 1.5H8.079a2.25 2.25 0 0 1-2.218-1.873l-2.637-15.5a.75.75 0 0 0-.74-.624H1.5a.75.75 0 1 1 0-1.5ZM6.68 13.875h11.438a2.25 2.25 0 0 0 2.182-1.704l1.45-5.8L5.403 6.37l1.277 7.505Z" fill-rule="evenodd"></path>
</svg>